<?xml version="1.0" encoding="UTF-8" standalone="no"?>
<!-- Created with Inkscape (http://www.inkscape.org/) -->

<svg
   width="350"
   height="280"
   viewBox="0 0 92.604168 74.083333"
   version="1.1"
   id="svg1"
   xmlns="http://www.w3.org/2000/svg"
   xmlns:svg="http://www.w3.org/2000/svg">
  <defs
     id="defs1">
    <filter
       style="color-interpolation-filters:sRGB;"
       id="filter28"
       x="-0.029756974"
       y="-0.022407066"
       width="1.0595139"
       height="1.0446591">
      <feGaussianBlur
         stdDeviation="0.05"
         result="blur"
         id="feGaussianBlur27" />
      <feComposite
         in="SourceGraphic"
         in2="blur"
         operator="in"
         result="composite1"
         id="feComposite27" />
      <feComposite
         in="composite1"
         in2="composite1"
         k2="1"
         operator="in"
         result="composite2"
         id="feComposite28" />
    </filter>
    <filter
       style="color-interpolation-filters:sRGB;"
       id="filter30"
       x="-0.011494774"
       y="-0.0086933794"
       width="1.0229896"
       height="1.0173867">
      <feGaussianBlur
         stdDeviation="0.05"
         result="blur"
         id="feGaussianBlur28" />
      <feComposite
         in="SourceGraphic"
         in2="blur"
         operator="in"
         result="composite1"
         id="feComposite29" />
      <feComposite
         in="composite1"
         in2="composite1"
         k2="1"
         operator="in"
         result="composite2"
         id="feComposite30" />
    </filter>
    <filter
       style="color-interpolation-filters:sRGB;"
       id="filter32"
       x="-0.023298469"
       y="-0.026911194"
       width="1.0465969"
       height="1.0538224">
      <feGaussianBlur
         stdDeviation="0.05"
         result="blur"
         id="feGaussianBlur30" />
      <feComposite
         in="SourceGraphic"
         in2="blur"
         operator="in"
         result="composite1"
         id="feComposite31" />
      <feComposite
         in="composite1"
         in2="composite1"
         k2="1"
         operator="in"
         result="composite2"
         id="feComposite32" />
    </filter>
    <filter
       style="color-interpolation-filters:sRGB;"
       id="filter34"
       x="-0.018547296"
       y="-0.027082638"
       width="1.0370946"
       height="1.0541653">
      <feGaussianBlur
         stdDeviation="0.05"
         result="blur"
         id="feGaussianBlur32" />
      <feComposite
         in="SourceGraphic"
         in2="blur"
         operator="in"
         result="composite1"
         id="feComposite33" />
      <feComposite
         in="composite1"
         in2="composite1"
         k2="1"
         operator="in"
         result="composite2"
         id="feComposite34" />
    </filter>
    <filter
       style="color-interpolation-filters:sRGB;"
       id="filter36"
       x="-0.0022677148"
       y="-0.026314286"
       width="1.0045354"
       height="1.0526286">
      <feGaussianBlur
         stdDeviation="0.05"
         result="blur"
         id="feGaussianBlur34" />
      <feComposite
         in="SourceGraphic"
         in2="blur"
         operator="in"
         result="composite1"
         id="feComposite35" />
      <feComposite
         in="composite1"
         in2="composite1"
         k2="1"
         operator="in"
         result="composite2"
         id="feComposite36" />
    </filter>
    <filter
       style="color-interpolation-filters:sRGB;"
       id="filter38"
       x="-0.018984032"
       y="-inf"
       width="1.0379681"
       height="inf">
      <feGaussianBlur
         stdDeviation="0.05"
         result="blur"
         id="feGaussianBlur36" />
      <feComposite
         in="SourceGraphic"
         in2="blur"
         operator="in"
         result="composite1"
         id="feComposite37" />
      <feComposite
         in="composite1"
         in2="composite1"
         k2="1"
         operator="in"
         result="composite2"
         id="feComposite38" />
    </filter>
  </defs>
  <g
     id="layer1">
    <rect
       style="fill:#e3e1c3;fill-opacity:1;stroke:#000000;stroke-width:0;stroke-linecap:round;stroke-dasharray:none"
       id="rect38"
       width="92.604164"
       height="74.083336"
       x="2.5431316e-06"
       y="0"
       rx="0.49983668"
       ry="0.49923444" />
    <path
       d="m 23.863538,56.254873 q 0.03528,0 0.03528,0.04233 0,0.04233 -0.03528,0.04233 -0.14111,0 -0.437443,-0.01411 -0.310446,-0.01411 -0.444501,-0.01411 -0.176389,0 -0.43039,0.01411 -0.239889,0.01411 -0.381,0.01411 -0.02822,0 -0.02822,-0.04233 0,-0.04233 0.02822,-0.04233 0.183445,0 0.261056,-0.03528 0.08467,-0.04233 0.08467,-0.141111 0,-0.119944 -0.141112,-0.402167 l -0.733778,-1.44639 h -1.25589 l -0.500944,1.107723 q -0.09172,0.204611 -0.09172,0.381 0,0.254001 0.176389,0.395112 0.183445,0.141111 0.486834,0.141111 0.03528,0 0.03528,0.04233 0,0.04233 -0.03528,0.04233 -0.126999,0 -0.366889,-0.01411 -0.268111,-0.01411 -0.465667,-0.01411 -0.1905,0 -0.458611,0.01411 -0.23989,0.01411 -0.388056,0.01411 -0.02822,0 -0.02822,-0.04233 0,-0.04233 0.02822,-0.04233 0.197556,0 0.331611,-0.07761 0.134056,-0.08467 0.268111,-0.289278 0.134057,-0.211667 0.3175,-0.620889 l 1.531057,-3.365503 q 0.01411,-0.02117 0.0635,-0.02117 0.05645,0 0.0635,0.02117 l 1.76389,3.471336 q 0.246945,0.500945 0.409223,0.691445 0.162277,0.1905 0.338666,0.1905 z M 20.47687,54.032372 h 1.065389 l -0.564445,-1.114779 z m 7.288391,-0.994834 q 0.02117,0 0.02117,0.04233 0,0.04233 -0.02117,0.04233 -0.282222,0 -0.416278,0.197556 -0.134055,0.197556 -0.134055,0.620889 v 2.476502 q 0,0.01411 -0.03528,0.02117 -0.03528,0.0071 -0.04939,-0.0071 l -2.476501,-2.794002 v 1.806224 q 0,0.416278 0.127,0.613833 0.134055,0.197556 0.409222,0.197556 0.02117,0 0.02117,0.04233 0,0.04233 -0.02117,0.04233 -0.169334,0 -0.261056,-0.0071 l -0.338667,-0.0071 -0.338666,0.0071 q -0.09878,0.0071 -0.282223,0.0071 -0.01411,0 -0.01411,-0.04233 0,-0.04233 0.01411,-0.04233 0.282223,0 0.416278,-0.197556 0.134056,-0.197555 0.134056,-0.613833 v -1.947335 q -0.1905,-0.197556 -0.338667,-0.282222 -0.141111,-0.09172 -0.275167,-0.09172 -0.01411,0 -0.01411,-0.04233 0,-0.04233 0.01411,-0.04233 l 0.395111,0.0071 q 0.05645,0 0.155223,0 0.09878,-0.0071 0.500945,-0.0071 0.05644,0 0.09172,0.03528 0.04233,0.03528 0.126999,0.134056 0.05644,0.08467 0.155222,0.197556 l 1.742724,1.947334 v -1.411112 q 0,-0.423333 -0.127,-0.620889 -0.127001,-0.197556 -0.409223,-0.197556 -0.01411,0 -0.01411,-0.04233 0,-0.04233 0.01411,-0.04233 l 0.268111,0.0071 q 0.211667,0.01411 0.331612,0.01411 0.119944,0 0.345722,-0.01411 z m 2.031995,3.330224 q -0.197555,0 -0.437444,-0.02117 -0.08467,-0.0071 -0.211666,-0.01411 -0.127,-0.0071 -0.289278,-0.0071 l -0.458612,0.0071 q -0.127001,0.0071 -0.352778,0.0071 -0.01411,0 -0.01411,-0.04233 0,-0.04233 0.01411,-0.04233 0.211667,0 0.303389,-0.03528 0.09878,-0.03528 0.127,-0.134055 0.03528,-0.105834 0.03528,-0.317501 v -2.159001 q 0,-0.211667 -0.03528,-0.310445 -0.02822,-0.09878 -0.127,-0.134055 -0.09172,-0.04233 -0.289278,-0.04233 -0.02117,0 -0.02117,-0.04233 0,-0.04233 0.02117,-0.04233 l 0.338667,0.0071 q 0.282223,0.01411 0.458612,0.01411 0.218722,0 0.437445,-0.02117 0.282222,-0.01411 0.423333,-0.01411 0.592666,0 1.023057,0.211666 0.430389,0.211667 0.656166,0.585612 0.225778,0.373945 0.225778,0.846667 0,0.486834 -0.232833,0.874889 -0.232833,0.388056 -0.649112,0.606779 -0.416279,0.218722 -0.945446,0.218722 z m -0.07761,-0.155222 q 0.515056,0 0.804334,-0.381001 0.289278,-0.381 0.289278,-1.086556 0,-0.684389 -0.289278,-1.128889 -0.289278,-0.451556 -0.867833,-0.451556 -0.23989,0 -0.345722,0.09878 -0.09878,0.09878 -0.09878,0.359833 v 2.067279 q 0,0.289278 0.09878,0.409223 0.105833,0.112889 0.409222,0.112889 z m 6.110111,0.04233 q 0.02117,0 0.02117,0.04233 0,0.04233 -0.02117,0.04233 h -1.157111 q -0.105835,0 -0.381001,-0.423334 -0.268112,-0.423333 -0.642055,-1.164167 -0.148167,0.02117 -0.296334,0.02117 h -0.119945 v 0.994834 q 0,0.218723 0.02822,0.317501 0.03528,0.09878 0.119944,0.134055 0.09172,0.03528 0.289278,0.03528 0.01411,0 0.01411,0.04233 0,0.04233 -0.01411,0.04233 -0.211667,0 -0.331611,-0.0071 l -0.479778,-0.0071 -0.458612,0.0071 q -0.127,0.0071 -0.352778,0.0071 -0.01411,0 -0.01411,-0.04233 0,-0.04233 0.01411,-0.04233 0.197556,0 0.289278,-0.03528 0.09172,-0.03528 0.127,-0.134055 0.03528,-0.105834 0.03528,-0.317501 v -2.159001 q 0,-0.211667 -0.03528,-0.310445 -0.02822,-0.09878 -0.119944,-0.134055 -0.09172,-0.04233 -0.282223,-0.04233 -0.02117,0 -0.02117,-0.04233 0,-0.04233 0.02117,-0.04233 l 0.345723,0.0071 q 0.282222,0.01411 0.451556,0.01411 0.134055,0 0.246944,-0.0071 0.112889,-0.0071 0.197556,-0.01411 0.232834,-0.02117 0.437445,-0.02117 0.550333,0 0.839611,0.176389 0.289278,0.176389 0.289278,0.508 0,0.275167 -0.176389,0.508001 -0.176389,0.232833 -0.486833,0.381 0.381,0.642056 0.656167,1.001889 0.275167,0.359834 0.500945,0.515056 0.225778,0.148167 0.465667,0.148167 z m -2.596446,-1.622779 q 0.04939,0.0071 0.169333,0.0071 0.402167,0 0.557389,-0.183445 0.155223,-0.1905 0.155223,-0.564445 0,-0.733778 -0.536223,-0.733778 -0.148167,0 -0.218722,0.03528 -0.07056,0.03528 -0.09878,0.134056 -0.02822,0.09172 -0.02822,0.296333 z m 5.397509,0.769056 q 0.01411,-0.02117 0.04939,-0.02117 0.03528,0 0.03528,0.02117 -0.04939,0.508001 -0.04939,0.832556 0,0.05645 -0.02117,0.08467 -0.02117,0.02117 -0.08467,0.02117 h -2.65289 q -0.01411,0 -0.01411,-0.04233 0,-0.04233 0.01411,-0.04233 0.204611,0 0.296334,-0.03528 0.09172,-0.03528 0.126999,-0.134055 0.03528,-0.105834 0.03528,-0.317501 v -2.159001 q 0,-0.211667 -0.03528,-0.310445 -0.03528,-0.09878 -0.134056,-0.134055 -0.09172,-0.04233 -0.289277,-0.04233 -0.01411,0 -0.01411,-0.04233 0,-0.04233 0.01411,-0.04233 h 2.525891 q 0.07055,0 0.07055,0.05644 l 0.0071,0.437445 q 0.0071,0.134055 0.0071,0.338667 0,0.02117 -0.04233,0.02117 -0.03528,0 -0.04233,-0.02117 -0.134056,-0.310445 -0.409223,-0.522112 -0.275168,-0.218722 -0.557389,-0.218722 h -0.04939 q -0.155223,0 -0.232833,0.04233 -0.07056,0.03528 -0.09878,0.134056 -0.02117,0.09878 -0.02117,0.310445 v 0.9525 q 0.536224,-0.0071 0.790223,-0.04233 0.254001,-0.03528 0.289279,-0.03528 0.04939,0 0.04939,0.155222 0,0.07056 -0.01411,0.127 -0.01411,0.05645 -0.03528,0.05645 -0.04233,0 -0.296334,-0.03528 -0.254,-0.03528 -0.783168,-0.04939 v 0.994834 q 0,0.211667 0.02117,0.310445 0.02822,0.09878 0.09878,0.141111 0.07761,0.03528 0.232833,0.03528 h 0.07761 q 0.331613,0 0.656168,-0.232834 0.324556,-0.239889 0.479778,-0.592667 z m 4.268619,0.853723 q 0.03528,0 0.03528,0.04233 0,0.04233 -0.03528,0.04233 -0.148167,0 -0.4445,-0.01411 -0.310445,-0.01411 -0.437445,-0.01411 -0.119943,0 -0.373944,0.01411 -0.23989,0.01411 -0.338667,0.01411 -0.02822,0 -0.02822,-0.04233 0,-0.04233 0.02822,-0.04233 0.162278,0 0.225777,-0.03528 0.07056,-0.04233 0.07056,-0.119944 0,-0.09878 -0.119945,-0.352778 l -0.423338,-0.910163 h -0.818445 l -0.26811,0.635001 q -0.127001,0.296333 -0.127001,0.465667 0,0.169333 0.119944,0.246944 0.119946,0.07056 0.373945,0.07056 0.03528,0 0.03528,0.04233 0,0.04233 -0.03528,0.04233 -0.09878,0 -0.282223,-0.01411 -0.197555,-0.01411 -0.366889,-0.01411 -0.176389,0 -0.416278,0.01411 -0.211667,0.01411 -0.345722,0.01411 -0.03528,0 -0.03528,-0.04233 0,-0.04233 0.03528,-0.04233 0.218722,0 0.352778,-0.0635 0.134055,-0.0635 0.246944,-0.239889 0.119945,-0.176389 0.275167,-0.543278 l 1.058335,-2.476502 q 0.01411,-0.02822 0.04233,-0.02822 0.02822,0 0.04233,0.02822 l 1.128889,2.441224 q 0.176389,0.381 0.289278,0.564445 0.119944,0.183444 0.23989,0.254 0.119943,0.0635 0.296332,0.0635 z m -2.582335,-1.601612 h 0.656167 l -0.345722,-0.740834 z m 10.696222,-2.723446 q 0.01411,0 0.01411,0.04233 0,0.04233 -0.01411,0.04233 -0.261056,0 -0.49389,0.225778 -0.225777,0.218723 -0.373944,0.606779 l -1.305279,3.485446 q -0.0071,0.02822 -0.07761,0.02822 -0.07056,0 -0.07761,-0.02822 l -0.903112,-1.912057 -0.712611,1.912057 q -0.0071,0.02822 -0.07761,0.02822 -0.07055,0 -0.07761,-0.02822 l -1.799174,-3.817049 q -0.105833,-0.225778 -0.176389,-0.324556 -0.0635,-0.09878 -0.148166,-0.134055 -0.07761,-0.04233 -0.211667,-0.04233 -0.02117,0 -0.02117,-0.04233 0,-0.04233 0.02117,-0.04233 0.105833,0 0.148167,0.0071 0.141111,0.01411 0.366889,0.01411 0.472722,0 0.797278,-0.01411 0.09172,-0.0071 0.225778,-0.0071 0.02117,0 0.02117,0.04233 0,0.04233 -0.02117,0.04233 -0.176389,0 -0.254,0.03528 -0.07056,0.03528 -0.07056,0.127 0,0.119945 0.162278,0.465667 l 1.270001,2.695224 0.4445,-1.164167 -0.783167,-1.658057 q -0.119945,-0.254 -0.225778,-0.373944 -0.105833,-0.127001 -0.225778,-0.127001 -0.02117,0 -0.02117,-0.04233 0,-0.04233 0.02117,-0.04233 0.07056,0 0.162278,0.01411 0.09878,0.0071 0.275167,0.0071 0.402167,0 0.670278,-0.01411 0.07056,-0.0071 0.183446,-0.0071 0.02117,0 0.02117,0.04233 0,0.04233 -0.02117,0.04233 -0.09878,0 -0.148168,0.02822 -0.04233,0.02117 -0.04233,0.08467 0,0.119945 0.1905,0.515056 l 0.310444,0.656167 0.176389,-0.472722 q 0.155223,-0.402167 0.155223,-0.606778 0,-0.204612 -0.176389,-0.204612 -0.02117,0 -0.02117,-0.04233 0,-0.04233 0.02117,-0.04233 0.05644,0 0.119944,0.01411 0.07056,0.0071 0.338667,0.0071 0.119945,0 0.289278,-0.01411 l 0.261057,-0.0071 q 0.01411,0 0.01411,0.04233 0,0.04233 -0.01411,0.04233 -0.472724,0 -0.783168,0.832557 l -0.261056,0.6985 0.846667,1.785057 0.910167,-2.434169 q 0.08467,-0.225777 0.08467,-0.409222 0,-0.218722 -0.112889,-0.345722 -0.105833,-0.127001 -0.289278,-0.127001 -0.02117,0 -0.02117,-0.04233 0,-0.04233 0.02117,-0.04233 l 0.324556,0.0071 q 0.254,0.01411 0.465667,0.01411 0.141111,0 0.324556,-0.01411 z m 2.730492,3.471335 q 0.01411,-0.02117 0.04939,-0.02117 0.03528,0 0.03528,0.02117 -0.04939,0.508001 -0.04939,0.832556 0,0.05645 -0.02117,0.08467 -0.02117,0.02117 -0.08467,0.02117 h -2.65289 q -0.01411,0 -0.01411,-0.04233 0,-0.04233 0.01411,-0.04233 0.204612,0 0.296334,-0.03528 0.09172,-0.03528 0.127,-0.134055 0.03528,-0.105834 0.03528,-0.317501 v -2.159001 q 0,-0.211667 -0.03528,-0.310445 -0.03528,-0.09878 -0.134056,-0.134055 -0.09172,-0.04233 -0.289278,-0.04233 -0.01411,0 -0.01411,-0.04233 0,-0.04233 0.01411,-0.04233 h 2.525891 q 0.07055,0 0.07055,0.05644 l 0.0071,0.437445 q 0.0071,0.134055 0.0071,0.338667 0,0.02117 -0.04233,0.02117 -0.03528,0 -0.04233,-0.02117 -0.134056,-0.310445 -0.409223,-0.522112 -0.275166,-0.218722 -0.557389,-0.218722 h -0.04939 q -0.155223,0 -0.232833,0.04233 -0.07056,0.03528 -0.09878,0.134056 -0.02117,0.09878 -0.02117,0.310445 v 0.9525 q 0.536223,-0.0071 0.790223,-0.04233 0.254,-0.03528 0.289278,-0.03528 0.04939,0 0.04939,0.155222 0,0.07056 -0.01411,0.127 -0.01411,0.05645 -0.03528,0.05645 -0.04233,0 -0.296334,-0.03528 -0.254,-0.03528 -0.783167,-0.04939 v 0.994834 q 0,0.211667 0.02117,0.310445 0.02822,0.09878 0.09878,0.141111 0.07761,0.03528 0.232833,0.03528 h 0.07761 q 0.331613,0 0.656168,-0.232834 0.324556,-0.239889 0.479779,-0.592667 z m 1.347616,-1.841501 q 0,0.197556 0.105834,0.345723 0.11289,0.141111 0.268111,0.246944 0.162278,0.09878 0.437445,0.239889 0.3175,0.169334 0.493889,0.289278 0.183444,0.112889 0.310445,0.296334 0.134055,0.183444 0.134055,0.437444 0,0.282223 -0.169333,0.515056 -0.162278,0.225778 -0.451556,0.359834 -0.289278,0.134056 -0.649112,0.134056 -0.324555,0 -0.635,-0.08467 -0.303389,-0.07761 -0.423334,-0.176389 -0.05644,-0.03528 -0.05644,-0.148167 L 54.421158,55.2177 q 0,-0.02822 0.03528,-0.03528 0.03528,-0.0071 0.04939,0.02117 0.268111,0.465667 0.543278,0.762 0.275168,0.296334 0.627945,0.296334 0.211667,0 0.352778,-0.127 0.141111,-0.127001 0.141111,-0.381001 0,-0.225778 -0.119945,-0.395111 -0.112889,-0.169334 -0.282222,-0.282222 -0.169333,-0.119945 -0.451556,-0.275167 -0.416277,-0.225778 -0.634999,-0.423334 -0.218723,-0.204611 -0.218723,-0.529167 0,-0.409222 0.359834,-0.649111 0.359834,-0.246945 0.867834,-0.246945 0.225778,0 0.472722,0.04939 0.246945,0.04939 0.395112,0.112889 0.0635,0.02117 0.08467,0.05644 0.02117,0.02822 0.02117,0.08467 v 0.670278 q 0,0.02117 -0.03528,0.03528 -0.03528,0.0071 -0.04939,-0.01411 -0.134056,-0.282223 -0.373945,-0.557389 -0.239888,-0.275167 -0.635001,-0.275167 -0.239888,0 -0.359833,0.127 -0.119945,0.119944 -0.119945,0.3175 z m 3.118567,-0.381 q -0.268112,0 -0.515056,0.225778 -0.239889,0.225778 -0.381001,0.613834 -0.0071,0.02117 -0.04233,0.02117 -0.03528,0 -0.03528,-0.02117 0.02822,-0.225778 0.0635,-0.585612 0.03528,-0.366889 0.03528,-0.550334 0,-0.03528 0.03528,-0.03528 0.04233,0 0.04233,0.03528 0,0.09172 0.105834,0.119945 0.105833,0.02117 0.268111,0.02117 0.606778,0.01411 1.06539,0.01411 l 0.613833,-0.0071 q 0.119945,-0.0071 0.324556,-0.0071 0.275167,0 0.409223,-0.02822 0.141111,-0.03528 0.176389,-0.141111 0.0071,-0.02117 0.04233,-0.02117 0.04233,0 0.04233,0.02117 l -0.02117,0.352778 q -0.04233,0.620889 -0.04233,0.81139 0,0.02117 -0.04233,0.02117 -0.04233,0 -0.04233,-0.02117 -0.03528,-0.218723 -0.162277,-0.409223 -0.127,-0.197556 -0.303389,-0.310445 -0.169334,-0.119944 -0.345723,-0.119944 -0.169333,0 -0.225778,0.09172 -0.05644,0.08467 -0.05644,0.338667 v 2.159001 q 0,0.211667 0.03528,0.317501 0.04233,0.09878 0.148167,0.134055 0.105834,0.03528 0.338667,0.03528 0.02117,0 0.02117,0.04233 0,0.04233 -0.02117,0.04233 -0.232833,0 -0.366889,-0.0071 l -0.529167,-0.0071 -0.515056,0.0071 q -0.134056,0.0071 -0.381,0.0071 -0.01411,0 -0.01411,-0.04233 0,-0.04233 0.01411,-0.04233 0.239889,0 0.345722,-0.03528 0.112889,-0.03528 0.148167,-0.134055 0.04233,-0.105834 0.04233,-0.317501 v -2.173112 q 0,-0.261056 -0.04939,-0.338667 -0.04939,-0.07761 -0.225778,-0.07761 z m 5.326953,2.222501 q 0.01411,-0.02117 0.04939,-0.02117 0.03528,0 0.03528,0.02117 -0.04939,0.508001 -0.04939,0.832556 0,0.05645 -0.02117,0.08467 -0.02117,0.02117 -0.08467,0.02117 h -2.652891 q -0.01411,0 -0.01411,-0.04233 0,-0.04233 0.01411,-0.04233 0.204611,0 0.296333,-0.03528 0.09172,-0.03528 0.127001,-0.134055 0.03528,-0.105834 0.03528,-0.317501 v -2.159001 q 0,-0.211667 -0.03528,-0.310445 -0.03528,-0.09878 -0.134056,-0.134055 -0.09172,-0.04233 -0.289278,-0.04233 -0.01411,0 -0.01411,-0.04233 0,-0.04233 0.01411,-0.04233 h 2.52589 q 0.07056,0 0.07056,0.05644 l 0.0071,0.437445 q 0.0071,0.134055 0.0071,0.338667 0,0.02117 -0.04233,0.02117 -0.03528,0 -0.04233,-0.02117 -0.134055,-0.310445 -0.409222,-0.522112 -0.275167,-0.218722 -0.557389,-0.218722 h -0.04939 q -0.155223,0 -0.232834,0.04233 -0.07055,0.03528 -0.09878,0.134056 -0.02117,0.09878 -0.02117,0.310445 v 0.9525 q 0.536222,-0.0071 0.790223,-0.04233 0.254,-0.03528 0.289277,-0.03528 0.04939,0 0.04939,0.155222 0,0.07056 -0.01411,0.127 -0.01411,0.05645 -0.03528,0.05645 -0.04233,0 -0.296333,-0.03528 -0.254,-0.03528 -0.783167,-0.04939 v 0.994834 q 0,0.211667 0.02117,0.310445 0.02822,0.09878 0.09878,0.141111 0.07761,0.03528 0.232834,0.03528 h 0.07761 q 0.331611,0 0.656167,-0.232834 0.324556,-0.239889 0.479778,-0.592667 z m 4.332119,0.853723 q 0.02117,0 0.02117,0.04233 0,0.04233 -0.02117,0.04233 h -1.157112 q -0.105833,0 -0.381,-0.423334 -0.268112,-0.423333 -0.642055,-1.164167 -0.148167,0.02117 -0.296334,0.02117 h -0.119945 v 0.994834 q 0,0.218723 0.02822,0.317501 0.03528,0.09878 0.119944,0.134055 0.09172,0.03528 0.289278,0.03528 0.01411,0 0.01411,0.04233 0,0.04233 -0.01411,0.04233 -0.211666,0 -0.331611,-0.0071 l -0.479778,-0.0071 -0.458611,0.0071 q -0.127002,0.0071 -0.352778,0.0071 -0.01411,0 -0.01411,-0.04233 0,-0.04233 0.01411,-0.04233 0.197554,0 0.289278,-0.03528 0.09172,-0.03528 0.126999,-0.134055 0.03528,-0.105834 0.03528,-0.317501 v -2.159001 q 0,-0.211667 -0.03528,-0.310445 -0.02822,-0.09878 -0.119945,-0.134055 -0.09172,-0.04233 -0.282222,-0.04233 -0.02117,0 -0.02117,-0.04233 0,-0.04233 0.02117,-0.04233 l 0.345722,0.0071 q 0.282223,0.01411 0.451556,0.01411 0.134056,0 0.246945,-0.0071 0.112889,-0.0071 0.197555,-0.01411 0.232834,-0.02117 0.437445,-0.02117 0.550334,0 0.839612,0.176389 0.289278,0.176389 0.289278,0.508 0,0.275167 -0.176389,0.508001 -0.176389,0.232833 -0.486834,0.381 0.381,0.642056 0.656167,1.001889 0.275167,0.359834 0.500945,0.515056 0.225778,0.148167 0.465667,0.148167 z m -2.596446,-1.622779 q 0.04939,0.0071 0.169333,0.0071 0.402167,0 0.557389,-0.183445 0.155223,-0.1905 0.155223,-0.564445 0,-0.733778 -0.536223,-0.733778 -0.148167,0 -0.218722,0.03528 -0.07056,0.03528 -0.09878,0.134056 -0.02822,0.09172 -0.02822,0.296333 z m 6.371178,-1.594556 q 0.02117,0 0.02117,0.04233 0,0.04233 -0.02117,0.04233 -0.282223,0 -0.416279,0.197556 -0.134056,0.197556 -0.134056,0.620889 v 2.476502 q 0,0.01411 -0.03528,0.02117 -0.03528,0.0071 -0.04939,-0.0071 L 68.532301,53.63726 v 1.806224 q 0,0.416278 0.127,0.613833 0.134056,0.197556 0.409222,0.197556 0.02117,0 0.02117,0.04233 0,0.04233 -0.02117,0.04233 -0.169333,0 -0.261055,-0.0071 l -0.338667,-0.0071 -0.338667,0.0071 q -0.09878,0.0071 -0.282222,0.0071 -0.01411,0 -0.01411,-0.04233 0,-0.04233 0.01411,-0.04233 0.282222,0 0.416278,-0.197556 0.134055,-0.197555 0.134055,-0.613833 v -1.947335 q -0.1905,-0.197556 -0.338667,-0.282222 -0.141111,-0.09172 -0.275166,-0.09172 -0.01411,0 -0.01411,-0.04233 0,-0.04233 0.01411,-0.04233 l 0.395111,0.0071 q 0.05644,0 0.155222,0 0.09878,-0.0071 0.500945,-0.0071 0.05644,0 0.09172,0.03528 0.04233,0.03528 0.127,0.134056 0.05644,0.08467 0.155223,0.197556 l 1.742723,1.947334 v -1.411112 q 0,-0.423333 -0.127,-0.620889 -0.127,-0.197556 -0.409223,-0.197556 -0.01411,0 -0.01411,-0.04233 0,-0.04233 0.01411,-0.04233 l 0.268112,0.0071 q 0.211667,0.01411 0.331611,0.01411 0.119945,0 0.345723,-0.01411 z"
       id="text4"
       style="font-weight:bold;font-size:7.05556px;line-height:1.25;font-family:'Cormorant SC';-inkscape-font-specification:'Cormorant SC, Bold';stroke-width:0.264583;filter:url(#filter36)"
       aria-label="Andrea Western" />
    <path
       style="fill:none;stroke:#000000;stroke-width:0.765;stroke-linecap:butt;stroke-linejoin:miter;stroke-dasharray:none;stroke-opacity:1;filter:url(#filter38)"
       d="M 67.534798,26.575921 H 73.8559 v 0"
       id="path4" />
    <path
       id="rect1"
       style="fill:none;stroke:#000000;stroke-width:1.232;stroke-linecap:round;stroke-dasharray:none;filter:url(#filter28)"
       d="M 33.60345,37.474186 45.623013,17.379068 c 0.10084,-0.168591 0.400636,-0.168591 0.501476,0 l 12.019563,20.095118 c 0.100839,0.16859 0.138909,0.362567 0,0.501476 L 46.124489,49.995224 c -0.138909,0.13891 -0.362567,0.13891 -0.501476,0 L 33.60345,37.975662 c -0.138909,-0.138909 -0.10084,-0.332885 0,-0.501476 z"
       transform="matrix(0.92850499,0,0,0.92850499,2.6126145,2.1868828)" />
    <path
       id="rect2"
       style="fill:none;stroke:#000000;stroke-width:0.214794;stroke-linecap:round;filter:url(#filter30)"
       d="m 35.459091,36.639767 9.49439,-15.844392 c 0.140239,-0.140238 0.366038,-0.140238 0.506275,0 l 9.494392,15.844391 c 0.140237,0.140238 0.140237,0.366036 0,0.506275 l -9.494392,9.494391 c -0.140239,0.140238 -0.366036,0.140238 -0.506275,0 l -9.49439,-9.49439 c -0.140238,-0.140239 -0.140238,-0.366036 0,-0.506275 z" />
    <path
       d="m 47.746626,35.583089 q 0.03528,0 0.03528,0.04233 0,0.04233 -0.03528,0.04233 -0.141111,0 -0.437444,-0.01411 -0.310445,-0.01411 -0.444501,-0.01411 -0.176389,0 -0.430389,0.01411 -0.239889,0.01411 -0.381,0.01411 -0.02822,0 -0.02822,-0.04233 0,-0.04233 0.02822,-0.04233 0.183444,0 0.261056,-0.03528 0.08467,-0.04233 0.08467,-0.141111 0,-0.119944 -0.141111,-0.402167 l -0.733778,-1.44639 h -1.25589 l -0.500945,1.107723 q -0.09172,0.204612 -0.09172,0.381001 0,0.254 0.176389,0.395111 0.183445,0.141111 0.486834,0.141111 0.03528,0 0.03528,0.04233 0,0.04233 -0.03528,0.04233 -0.127,0 -0.366889,-0.01411 -0.268112,-0.01411 -0.465667,-0.01411 -0.1905,0 -0.458612,0.01411 -0.239889,0.01411 -0.388056,0.01411 -0.02822,0 -0.02822,-0.04233 0,-0.04233 0.02822,-0.04233 0.197556,0 0.331612,-0.07761 0.134055,-0.08467 0.268111,-0.289278 0.134056,-0.211667 0.3175,-0.620889 l 1.531057,-3.365502 q 0.01411,-0.02117 0.0635,-0.02117 0.05644,0 0.0635,0.02117 l 1.76389,3.471335 q 0.246945,0.500945 0.409222,0.691445 0.162278,0.1905 0.338667,0.1905 z m -3.386669,-2.222501 h 1.06539 l -0.564445,-1.114779 z"
       id="text2"
       style="font-weight:bold;font-size:7.05556px;line-height:1.25;font-family:'Cormorant SC';-inkscape-font-specification:'Cormorant SC, Bold';stroke-width:0.264583;filter:url(#filter32)"
       aria-label="A" />
    <path
       d="m 48.427487,38.329888 q 0.01411,0 0.01411,0.04233 0,0.04233 -0.01411,0.04233 -0.261056,0 -0.493889,0.225778 -0.225778,0.218722 -0.373945,0.606778 l -1.305278,3.485447 q -0.0071,0.02822 -0.07761,0.02822 -0.07056,0 -0.07761,-0.02822 l -0.903112,-1.912057 -0.712611,1.912057 q -0.0071,0.02822 -0.07761,0.02822 -0.07056,0 -0.07761,-0.02822 l -1.799168,-3.817058 q -0.105834,-0.225778 -0.176389,-0.324556 -0.0635,-0.09878 -0.148167,-0.134056 -0.07761,-0.04233 -0.211667,-0.04233 -0.02117,0 -0.02117,-0.04233 0,-0.04233 0.02117,-0.04233 0.105834,0 0.148167,0.0071 0.141111,0.01411 0.366889,0.01411 0.472723,0 0.797278,-0.01411 0.09172,-0.0071 0.225778,-0.0071 0.02117,0 0.02117,0.04233 0,0.04233 -0.02117,0.04233 -0.176389,0 -0.254,0.03528 -0.07055,0.03528 -0.07055,0.127 0,0.119944 0.162277,0.465667 l 1.270001,2.695224 0.444501,-1.164168 -0.783168,-1.658056 q -0.119944,-0.254 -0.225778,-0.373945 -0.105833,-0.127 -0.225777,-0.127 -0.02117,0 -0.02117,-0.04233 0,-0.04233 0.02117,-0.04233 0.07055,0 0.162277,0.01411 0.09878,0.0071 0.275167,0.0071 0.402167,0 0.670278,-0.01411 0.07056,-0.0071 0.183445,-0.0071 0.02117,0 0.02117,0.04233 0,0.04233 -0.02117,0.04233 -0.09878,0 -0.148167,0.02822 -0.04233,0.02117 -0.04233,0.08467 0,0.119945 0.1905,0.515056 l 0.310445,0.656167 0.176389,-0.472723 q 0.155222,-0.402166 0.155222,-0.606778 0,-0.204611 -0.176389,-0.204611 -0.02117,0 -0.02117,-0.04233 0,-0.04233 0.02117,-0.04233 0.05644,0 0.119945,0.01411 0.07056,0.0071 0.338666,0.0071 0.119945,0 0.289278,-0.01411 l 0.261056,-0.0071 q 0.01411,0 0.01411,0.04233 0,0.04233 -0.01411,0.04233 -0.472722,0 -0.783167,0.832556 l -0.261056,0.698501 0.846667,1.785056 0.910168,-2.434168 q 0.08467,-0.225778 0.08467,-0.409222 0,-0.218723 -0.112889,-0.345723 -0.105833,-0.127 -0.289278,-0.127 -0.02117,0 -0.02117,-0.04233 0,-0.04233 0.02117,-0.04233 l 0.324556,0.0071 q 0.254,0.01411 0.465667,0.01411 0.141111,0 0.324556,-0.01411 z"
       id="text3"
       style="font-weight:bold;font-size:7.05556px;line-height:1.25;font-family:'Cormorant SC';-inkscape-font-specification:'Cormorant SC, Bold';stroke-width:0.264583;filter:url(#filter34)"
       aria-label="W" />
    <path
       style="fill:none;stroke:#000000;stroke-width:0.25;stroke-linecap:butt;stroke-linejoin:miter;stroke-opacity:1;stroke-dasharray:none"
       d="m 37.093615,36.892905 c 16.226011,0 16.226011,0 16.226011,0 v 0 0 0"
       id="path39" />
    <path
       id="path38"
       style="fill:#e3e1c3;stroke:#000000;stroke-width:0.25;stroke-linecap:round;stroke-dasharray:none;fill-opacity:1"
       d="m 44.430088,36.89307 a 0.69540048,0.69540048 0 0 1 0.690864,-0.695553 0.69540048,0.69540048 0 0 1 0.69988,0.686482 0.69540048,0.69540048 0 0 1 -0.682072,0.704178 0.69540048,0.69540048 0 0 1 -0.708449,-0.677634" />
  </g>
</svg>
