<?xml version="1.0" encoding="UTF-8" standalone="no"?>
<!-- Created with Inkscape (http://www.inkscape.org/) -->

<svg
   width="350"
   height="280"
   viewBox="0 0 92.604168 74.083333"
   version="1.1"
   id="svg1"
   inkscape:version="1.4.2 (f4327f4, 2025-05-13)"
   sodipodi:docname="AveriDesign.svg"
   xmlns:inkscape="http://www.inkscape.org/namespaces/inkscape"
   xmlns:sodipodi="http://sodipodi.sourceforge.net/DTD/sodipodi-0.dtd"
   xmlns="http://www.w3.org/2000/svg"
   xmlns:svg="http://www.w3.org/2000/svg">
  <sodipodi:namedview
     id="namedview1"
     pagecolor="#ffffff"
     bordercolor="#666666"
     borderopacity="1.0"
     inkscape:showpageshadow="2"
     inkscape:pageopacity="0.0"
     inkscape:pagecheckerboard="0"
     inkscape:deskcolor="#d1d1d1"
     inkscape:document-units="mm"
     inkscape:zoom="2.0177797"
     inkscape:cx="167.26306"
     inkscape:cy="133.56265"
     inkscape:window-width="1920"
     inkscape:window-height="1001"
     inkscape:window-x="-7"
     inkscape:window-y="-7"
     inkscape:window-maximized="1"
     inkscape:current-layer="layer1"
     showguides="false">
    <sodipodi:guide
       position="66.758449,41.90947"
       orientation="0,-1"
       id="guide2"
       inkscape:locked="false" />
    <sodipodi:guide
       position="45.432833,50.486077"
       orientation="0,-1"
       id="guide3"
       inkscape:locked="false" />
    <sodipodi:guide
       position="44.760613,44.204292"
       orientation="1,0"
       id="guide4"
       inkscape:locked="false" />
  </sodipodi:namedview>
  <defs
     id="defs1">
    <filter
       style="color-interpolation-filters:sRGB;"
       inkscape:label="Clean Edges"
       id="filter5"
       x="-0.0042047984"
       y="-0.013902529"
       width="1.0084096"
       height="1.0278051">
      <feGaussianBlur
         stdDeviation="0.05"
         result="blur"
         id="feGaussianBlur4" />
      <feComposite
         in="SourceGraphic"
         in2="blur"
         operator="in"
         result="composite1"
         id="feComposite4" />
      <feComposite
         in="composite1"
         in2="composite1"
         k2="1"
         operator="in"
         result="composite2"
         id="feComposite5" />
    </filter>
  </defs>
  <g
     inkscape:label="Livello 1"
     inkscape:groupmode="layer"
     id="layer1">
    <rect
       style="fill:#b9b9e0;fill-opacity:1;stroke:none;stroke-width:0.25;stroke-linecap:round"
       id="rect4"
       width="92.604164"
       height="74.083336"
       x="0"
       y="0"
       rx="0.5"
       ry="0.5" />
    <g
       id="g4"
       transform="translate(7.8891854,9.1835624)"
       style="filter:url(#filter5)">
      <g
         id="g2">
        <path
           d="m 29.258774,27.916792 q 0.03528,0 0.03528,0.04233 0,0.04233 -0.03528,0.04233 -0.141111,0 -0.437444,-0.01411 -0.310445,-0.01411 -0.444501,-0.01411 -0.176389,0 -0.430389,0.01411 -0.239889,0.01411 -0.381,0.01411 -0.02822,0 -0.02822,-0.04233 0,-0.04233 0.02822,-0.04233 0.183445,0 0.261056,-0.03528 0.08467,-0.04233 0.08467,-0.141112 0,-0.119944 -0.141111,-0.402167 l -0.733778,-1.446389 h -1.25589 l -0.500944,1.107723 q -0.09172,0.204611 -0.09172,0.381 0,0.254 0.176389,0.395111 0.183445,0.141111 0.486834,0.141111 0.03528,0 0.03528,0.04233 0,0.04233 -0.03528,0.04233 -0.127,0 -0.366889,-0.01411 -0.268112,-0.01411 -0.465667,-0.01411 -0.1905,0 -0.458612,0.01411 -0.239889,0.01411 -0.388055,0.01411 -0.02822,0 -0.02822,-0.04233 0,-0.04233 0.02822,-0.04233 0.197555,0 0.331611,-0.07761 0.134056,-0.08467 0.268111,-0.289278 0.134056,-0.211667 0.3175,-0.620889 l 1.531057,-3.365502 q 0.01411,-0.02117 0.0635,-0.02117 0.05644,0 0.0635,0.02117 l 1.76389,3.471335 q 0.246945,0.500945 0.409223,0.691445 0.162277,0.1905 0.338666,0.1905 z m -3.386668,-2.222501 h 1.065389 L 26.37305,24.579512 Z m 7.450673,-2.102557 q 0.02117,0 0.02117,0.04233 0,0.04233 -0.02117,0.04233 -0.254,0 -0.486834,0.225778 -0.232833,0.225778 -0.373945,0.606778 l -1.305278,3.485447 q -0.0071,0.02822 -0.07761,0.02822 -0.07056,0 -0.07761,-0.02822 l -1.799167,-3.817058 q -0.127,-0.254001 -0.254001,-0.373945 -0.127,-0.127 -0.282222,-0.127 -0.02117,0 -0.02117,-0.04233 0,-0.04233 0.02117,-0.04233 0.105833,0 0.148167,0.0071 0.141111,0.01411 0.366889,0.01411 0.606778,0 1.030112,-0.01411 0.112889,-0.0071 0.282222,-0.0071 0.02117,0 0.02117,0.04233 0,0.04233 -0.02117,0.04233 -0.211667,0 -0.331611,0.09172 -0.112889,0.08467 -0.112889,0.246945 0,0.119944 0.07761,0.289278 l 1.220612,2.603501 0.917223,-2.420057 q 0.07055,-0.197555 0.07055,-0.338667 0,-0.218722 -0.134055,-0.345722 -0.127,-0.127 -0.373945,-0.127 -0.02117,0 -0.02117,-0.04233 0,-0.04233 0.02117,-0.04233 l 0.345722,0.0071 q 0.296334,0.01411 0.529167,0.01411 0.134056,0 0.331612,-0.01411 z m 3.464279,3.287891 q 0,-0.01411 0.02822,-0.01411 0.02117,0 0.03528,0.01411 0.02117,0.0071 0.02117,0.01411 -0.07056,0.550334 -0.07056,1.00189 0,0.05644 -0.02117,0.08467 -0.02117,0.02117 -0.08467,0.02117 h -3.118558 q -0.02117,0 -0.02117,-0.04233 0,-0.04233 0.02117,-0.04233 0.225778,0 0.324556,-0.03528 0.105834,-0.03528 0.141111,-0.134056 0.03528,-0.105833 0.03528,-0.3175 v -3.266725 q 0,-0.211666 -0.03528,-0.310444 -0.03528,-0.09878 -0.141111,-0.134056 -0.105833,-0.04233 -0.324556,-0.04233 -0.02117,0 -0.02117,-0.04233 0,-0.04233 0.02117,-0.04233 h 2.991558 q 0.07055,0 0.07055,0.0635 l 0.01411,0.93839 q 0,0.01411 -0.04233,0.02117 -0.03528,0.0071 -0.04233,-0.01411 -0.112889,-0.409222 -0.381,-0.606778 -0.268112,-0.197556 -0.705556,-0.197556 h -0.211667 q -0.211667,0 -0.310445,0.09172 -0.09878,0.09172 -0.09878,0.282222 v 1.439334 h 0.585612 q 0.409222,0 0.627945,-0.141111 0.218722,-0.141111 0.218722,-0.395111 0,-0.02117 0.03528,-0.02117 0.04233,0 0.04233,0.02117 l -0.0071,0.635 0.0071,0.338667 q 0.01411,0.239889 0.01411,0.381 0,0.01411 -0.04233,0.01411 -0.04233,0 -0.04233,-0.01411 0,-0.289278 -0.225778,-0.451556 Q 35.855724,25.80718 35.439446,25.80718 H 34.86089 v 1.594557 q 0,0.204611 0.07761,0.303389 0.07761,0.09878 0.246945,0.09878 h 0.232834 q 0.550333,0 0.881945,-0.225777 0.331611,-0.225778 0.486833,-0.698501 z m 5.390448,1.037167 q 0.01411,0 0.01411,0.04233 0,0.04233 -0.01411,0.04233 h -1.25589 q -0.155223,0 -0.578556,-0.578556 -0.423334,-0.585611 -1.023056,-1.629834 -0.05644,0.0071 -0.162278,0.0071 -0.275167,0 -0.388056,-0.0071 v 1.63689 q 0,0.218722 0.03528,0.3175 0.03528,0.09878 0.134055,0.134056 0.105834,0.03528 0.331612,0.03528 0.01411,0 0.01411,0.04233 0,0.04233 -0.01411,0.04233 -0.232834,0 -0.366889,-0.0071 l -0.536223,-0.0071 -0.515056,0.0071 q -0.141111,0.0071 -0.381,0.0071 -0.02117,0 -0.02117,-0.04233 0,-0.04233 0.02117,-0.04233 0.225778,0 0.324556,-0.03528 0.105833,-0.03528 0.141111,-0.134056 0.04233,-0.105833 0.04233,-0.3175 v -3.266725 q 0,-0.211666 -0.03528,-0.310444 -0.03528,-0.09878 -0.141111,-0.134056 -0.105833,-0.04233 -0.324556,-0.04233 -0.01411,0 -0.01411,-0.04233 0,-0.04233 0.01411,-0.04233 l 0.373945,0.0071 q 0.324556,0.01411 0.515056,0.01411 0.204611,0 0.451556,-0.02117 0.07761,-0.0071 0.197556,-0.01411 0.127,-0.0071 0.296333,-0.0071 0.649112,0 1.00189,0.239889 0.359833,0.232834 0.359833,0.656168 0,0.324555 -0.197555,0.620889 -0.197556,0.296333 -0.515056,0.479778 0.564444,0.889 0.945445,1.389945 0.388056,0.500945 0.684389,0.733778 0.303389,0.225778 0.585612,0.225778 z M 38.76967,25.588458 q 0.169333,0.02822 0.409222,0.02822 0.254001,0 0.402167,-0.07761 0.148167,-0.07761 0.211667,-0.268112 0.07056,-0.1905 0.07056,-0.536222 0,-0.578556 -0.169334,-0.797279 -0.169333,-0.218722 -0.486833,-0.218722 -0.239889,0 -0.338667,0.105834 -0.09878,0.105833 -0.09878,0.352778 z m 4.938893,1.841501 q 0,0.218722 0.03528,0.3175 0.03528,0.09878 0.134055,0.134056 0.105834,0.03528 0.331612,0.03528 0.02117,0 0.02117,0.04233 0,0.04233 -0.02117,0.04233 -0.232834,0 -0.366889,-0.0071 l -0.536223,-0.0071 -0.522111,0.0071 q -0.141112,0.0071 -0.381001,0.0071 -0.01411,0 -0.01411,-0.04233 0,-0.04233 0.01411,-0.04233 0.225778,0 0.331612,-0.03528 0.105833,-0.03528 0.141111,-0.134056 0.04233,-0.105833 0.04233,-0.3175 v -3.266725 q 0,-0.211666 -0.04233,-0.310444 -0.03528,-0.09878 -0.141111,-0.134056 -0.105834,-0.04233 -0.331612,-0.04233 -0.01411,0 -0.01411,-0.04233 0,-0.04233 0.01411,-0.04233 l 0.381001,0.0071 q 0.324555,0.01411 0.522111,0.01411 0.218722,0 0.543278,-0.01411 l 0.359834,-0.0071 q 0.02117,0 0.02117,0.04233 0,0.04233 -0.02117,0.04233 -0.218723,0 -0.324556,0.04233 -0.105833,0.04233 -0.141111,0.148167 -0.03528,0.09878 -0.03528,0.310445 z"
           id="text1"
           style="font-weight:bold;font-size:7.05556px;line-height:1.25;font-family:'Cormorant SC';-inkscape-font-specification:'Cormorant SC, Bold';stroke-width:0.264583"
           aria-label="AVERI" />
        <path
           d="m 25.824842,32.031617 q -0.180549,0 -0.428803,-0.01693 -0.09027,-0.0056 -0.225685,-0.01129 -0.12977,-0.0056 -0.293392,-0.0056 l -0.417518,0.0056 q -0.112843,0.0056 -0.304676,0.0056 -0.01128,0 -0.01128,-0.03385 0,-0.03385 0.01128,-0.03385 0.180549,0 0.265181,-0.02821 0.08463,-0.02821 0.112843,-0.107201 0.03385,-0.08463 0.03385,-0.253896 v -2.612311 q 0,-0.169264 -0.03385,-0.248254 -0.02821,-0.07899 -0.112843,-0.1072 -0.07899,-0.03385 -0.253896,-0.03385 -0.01693,0 -0.01693,-0.03385 0,-0.03385 0.01693,-0.03385 l 0.299033,0.0056 q 0.259538,0.01128 0.411876,0.01128 0.231328,0 0.47394,-0.01693 0.293391,-0.01128 0.39495,-0.01128 0.569856,0 1.009943,0.225685 0.445729,0.225686 0.688341,0.614994 0.242612,0.389307 0.242612,0.874531 0,0.547288 -0.253896,0.970448 -0.248255,0.417519 -0.677057,0.648846 -0.423161,0.225686 -0.930953,0.225686 z m -0.05642,-0.129769 q 0.361097,0 0.637562,-0.180549 0.276465,-0.18619 0.428803,-0.547287 0.15798,-0.361097 0.15798,-0.863248 0,-0.479582 -0.146696,-0.868889 -0.146696,-0.39495 -0.417518,-0.620636 -0.270823,-0.225685 -0.626278,-0.225685 -0.349812,0 -0.479582,0.06771 -0.129769,0.06771 -0.129769,0.28775 v 2.538963 q 0,0.225685 0.118485,0.321602 0.118485,0.09027 0.457013,0.09027 z m 4.993294,-0.7899 q 0,-0.01128 0.02257,-0.01128 0.01693,0 0.02821,0.01128 0.01693,0.0056 0.01693,0.01128 -0.05642,0.440087 -0.05642,0.801184 0,0.04514 -0.01693,0.06771 -0.01693,0.01693 -0.06771,0.01693 H 28.19454 q -0.01693,0 -0.01693,-0.03385 0,-0.03385 0.01693,-0.03385 0.180548,0 0.259538,-0.02821 0.08463,-0.02821 0.112843,-0.107201 0.02821,-0.08463 0.02821,-0.253896 v -2.612311 q 0,-0.169264 -0.02821,-0.248254 -0.02821,-0.07899 -0.112843,-0.1072 -0.08463,-0.03385 -0.259538,-0.03385 -0.01693,0 -0.01693,-0.03385 0,-0.03385 0.01693,-0.03385 h 2.392267 q 0.05642,0 0.05642,0.05078 l 0.01128,0.750405 q 0,0.01128 -0.03385,0.01693 -0.02821,0.0056 -0.03385,-0.01128 -0.09027,-0.327244 -0.304675,-0.485224 -0.214402,-0.15798 -0.564214,-0.15798 h -0.169264 q -0.169265,0 -0.248255,0.07335 -0.07899,0.07335 -0.07899,0.225685 v 1.150997 h 0.468298 q 0.327244,0 0.502151,-0.112843 0.174906,-0.112843 0.174906,-0.31596 0,-0.01693 0.02821,-0.01693 0.03385,0 0.03385,0.01693 l -0.0056,0.507793 0.0056,0.270823 q 0.01129,0.191832 0.01129,0.304675 0,0.01129 -0.03385,0.01129 -0.03385,0 -0.03385,-0.01129 0,-0.231327 -0.180548,-0.361097 -0.174907,-0.135411 -0.507793,-0.135411 h -0.462656 v 1.275124 q 0,0.163622 0.06206,0.242612 0.06206,0.07899 0.197475,0.07899 h 0.186191 q 0.440086,0 0.705267,-0.180549 0.265181,-0.180548 0.389308,-0.558572 z m 1.297692,-2.059381 q 0,0.203117 0.101559,0.361097 0.1072,0.15798 0.259538,0.276465 0.152338,0.118485 0.411876,0.287749 0.282107,0.180549 0.451372,0.31596 0.169264,0.135411 0.287749,0.332886 0.118485,0.191833 0.118485,0.445729 0,0.293392 -0.15798,0.524719 -0.15798,0.225686 -0.440087,0.355455 -0.276465,0.124127 -0.620636,0.124127 -0.253896,0 -0.530361,-0.06771 -0.276465,-0.07335 -0.372381,-0.157979 -0.02821,-0.02257 -0.04514,-0.03949 -0.01128,-0.02257 -0.01128,-0.06771 l -0.01693,-0.8971 v -0.0056 q 0,-0.02257 0.02821,-0.02257 0.02821,-0.0056 0.03385,0.01693 0.169264,0.344171 0.293391,0.558572 0.129769,0.214402 0.321602,0.378024 0.197475,0.163622 0.445729,0.163622 0.225686,0 0.372381,-0.118485 0.146696,-0.124127 0.146696,-0.417519 0,-0.248254 -0.112843,-0.434444 -0.1072,-0.186191 -0.26518,-0.31596 -0.15798,-0.129769 -0.434445,-0.310318 -0.270823,-0.174906 -0.423161,-0.299033 -0.146695,-0.124127 -0.253896,-0.299034 -0.107201,-0.174906 -0.107201,-0.411876 0,-0.299033 0.169265,-0.50215 0.174906,-0.20876 0.445729,-0.304676 0.270822,-0.101559 0.569856,-0.101559 0.197475,0 0.400592,0.0395 0.203117,0.03385 0.327244,0.08463 0.05078,0.02257 0.0677,0.05078 0.01693,0.02257 0.01693,0.06206 v 0.829395 q 0,0.01693 -0.02821,0.02821 -0.02821,0.0056 -0.03385,-0.01128 l -0.04514,-0.1072 q -0.141053,-0.355455 -0.332886,-0.603709 -0.186191,-0.248254 -0.524719,-0.248254 -0.225686,0 -0.372381,0.129769 -0.141054,0.129769 -0.141054,0.378023 z m 3.204731,2.499468 q 0,0.174906 0.02821,0.253896 0.02821,0.07899 0.107201,0.107201 0.08463,0.02821 0.26518,0.02821 0.01693,0 0.01693,0.03385 0,0.03385 -0.01693,0.03385 -0.18619,0 -0.293391,-0.0056 l -0.428802,-0.0056 -0.417519,0.0056 q -0.112843,0.0056 -0.304675,0.0056 -0.01129,0 -0.01129,-0.03385 0,-0.03385 0.01129,-0.03385 0.180548,0 0.26518,-0.02821 0.08463,-0.02821 0.112843,-0.107201 0.03385,-0.08463 0.03385,-0.253896 v -2.612311 q 0,-0.169264 -0.03385,-0.248254 -0.02821,-0.07899 -0.112843,-0.1072 -0.08463,-0.03385 -0.26518,-0.03385 -0.01129,0 -0.01129,-0.03385 0,-0.03385 0.01129,-0.03385 l 0.304675,0.0056 q 0.259539,0.01128 0.417519,0.01128 0.174906,0 0.434444,-0.01128 l 0.287749,-0.0056 q 0.01693,0 0.01693,0.03385 0,0.03385 -0.01693,0.03385 -0.174906,0 -0.259538,0.03385 -0.08463,0.03385 -0.112843,0.118484 -0.02821,0.07899 -0.02821,0.248255 z m 2.956488,0.524719 q -0.620636,0 -1.083291,-0.23697 -0.462655,-0.23697 -0.705268,-0.643204 -0.242612,-0.411876 -0.242612,-0.914026 0,-0.541646 0.276465,-0.964806 0.282107,-0.428803 0.767331,-0.660131 0.490867,-0.23697 1.094575,-0.23697 0.265181,0 0.536004,0.04514 0.270823,0.03949 0.434445,0.1072 0.05078,0.01693 0.06206,0.04514 0.01693,0.02257 0.02257,0.08463 l 0.07335,0.784258 q 0,0.01693 -0.02821,0.02257 -0.02821,0.0056 -0.0395,-0.01693 -0.197475,-0.434445 -0.547288,-0.677057 -0.34417,-0.242612 -0.789899,-0.242612 -0.575499,0 -0.880174,0.400592 -0.299034,0.400592 -0.299034,1.094575 0,0.558572 0.191833,0.998659 0.191833,0.434445 0.530361,0.677057 0.344171,0.23697 0.767331,0.23697 0.231328,0 0.355455,-0.05078 0.124127,-0.05078 0.180549,-0.197475 0.05642,-0.146696 0.05642,-0.434445 0,-0.293391 -0.03385,-0.406234 -0.03385,-0.118485 -0.146695,-0.15798 -0.107201,-0.03949 -0.378024,-0.03949 -0.03385,0 -0.03385,-0.04514 0,-0.01693 0.0056,-0.02821 0.01129,-0.01693 0.02257,-0.01693 0.479582,0.02821 0.772973,0.02821 0.287749,0 0.598067,-0.01693 0.01128,0 0.01693,0.01693 0.01129,0.01128 0.01129,0.02257 0,0.0395 -0.02821,0.0395 -0.101558,-0.0056 -0.141053,0.03949 -0.03949,0.0395 -0.05078,0.169264 -0.01128,0.124127 -0.01128,0.451371 0,0.253897 0.01693,0.361097 0.02257,0.107201 0.02257,0.135412 0,0.03385 -0.01693,0.04514 -0.01129,0.01128 -0.05078,0.02257 -0.727836,0.15798 -1.308976,0.15798 z m 5.82833,-3.594043 q 0.01128,0 0.01128,0.03385 0,0.03385 -0.01128,0.03385 -0.225686,0 -0.355455,0.180548 -0.129769,0.174907 -0.129769,0.47394 v 2.888776 q 0,0.01693 -0.02821,0.02257 -0.02257,0.0056 -0.03385,-0.0056 l -2.646164,-3.012903 v 2.194793 q 0,0.299033 0.124128,0.473939 0.124127,0.174907 0.34417,0.174907 0.01128,0 0.01128,0.03385 0,0.03385 -0.01128,0.03385 -0.15798,0 -0.242612,-0.0056 l -0.304676,-0.0056 -0.349812,0.0056 q -0.09592,0.0056 -0.276465,0.0056 -0.01693,0 -0.01693,-0.03385 0,-0.03385 0.01693,-0.03385 0.248254,0 0.389308,-0.174907 0.146695,-0.174906 0.146695,-0.473939 v -2.386625 q -0.18619,-0.203118 -0.321602,-0.276465 -0.129769,-0.07899 -0.270822,-0.07899 -0.01129,0 -0.01129,-0.03385 0,-0.03385 0.01129,-0.03385 l 0.236969,0.0056 q 0.07335,0.0056 0.214402,0.0056 l 0.428802,-0.0056 q 0.07899,-0.0056 0.191833,-0.0056 0.04514,0 0.06771,0.02257 0.02257,0.02257 0.07899,0.09592 0.09592,0.129769 0.135411,0.174906 l 1.952181,2.251214 v -1.822411 q 0,-0.304676 -0.124128,-0.479582 -0.124127,-0.174906 -0.34417,-0.174906 -0.01128,0 -0.01128,-0.03385 0,-0.03385 0.01128,-0.03385 l 0.242612,0.0056 q 0.180548,0.01128 0.304675,0.01128 0.112843,0 0.31596,-0.01128 z"
           id="text2"
           style="font-weight:bold;font-size:5.64214px;line-height:1.25;font-family:'Cormorant SC';-inkscape-font-specification:'Cormorant SC, Bold';stroke-width:0.21158"
           aria-label="DESIGN" />
      </g>
      <path
         id="path2"
         style="fill:#fe6e2a;stroke-width:0.25;stroke-linecap:round"
         inkscape:transform-center-x="-1.1620164"
         inkscape:transform-center-y="-0.058220259"
         transform="matrix(0.67254643,-0.77923748,0.77923748,0.67254643,-10.925471,53.621585)"
         d="m 59.34084,30.412181 c -0.563691,0.491423 -7.716603,-1.960111 -7.860342,-2.693994 -0.143739,-0.733883 5.555808,-5.702719 6.263239,-5.460259 0.70743,0.242459 2.160795,7.66283 1.597103,8.154253 z" />
    </g>
  </g>
</svg>
