<?xml version="1.0" encoding="UTF-8" standalone="no"?>
<!-- Created with Inkscape (http://www.inkscape.org/) -->

<svg
   width="350"
   height="280"
   viewBox="0 0 92.604168 74.083333"
   version="1.1"
   id="svg1"
   inkscape:version="1.4.2 (f4327f4, 2025-05-13)"
   sodipodi:docname="ButterflyZone.svg"
   xmlns:inkscape="http://www.inkscape.org/namespaces/inkscape"
   xmlns:sodipodi="http://sodipodi.sourceforge.net/DTD/sodipodi-0.dtd"
   xmlns="http://www.w3.org/2000/svg"
   xmlns:svg="http://www.w3.org/2000/svg">
  <sodipodi:namedview
     id="namedview1"
     pagecolor="#ffffff"
     bordercolor="#666666"
     borderopacity="1.0"
     inkscape:showpageshadow="2"
     inkscape:pageopacity="0.0"
     inkscape:pagecheckerboard="0"
     inkscape:deskcolor="#d1d1d1"
     inkscape:document-units="mm"
     inkscape:zoom="2.12"
     inkscape:cx="175"
     inkscape:cy="139.85849"
     inkscape:window-width="1920"
     inkscape:window-height="1001"
     inkscape:window-x="-7"
     inkscape:window-y="-7"
     inkscape:window-maximized="1"
     inkscape:current-layer="layer1" />
  <defs
     id="defs1" />
  <g
     inkscape:label="Livello 1"
     inkscape:groupmode="layer"
     id="layer1">
    <g
       id="g1"
       transform="translate(0,-4.124653)">
      <path
         style="fill:#000000;stroke-width:0.19923"
         d="m 30.736426,45.626555 -2.15589,-0.69405 0.317722,-0.888404 c 0.67195,-1.878866 1.219002,-2.790991 2.078032,-3.464799 0.731052,-0.573424 1.59792,-0.747653 3.019937,-0.60697 0.607171,0.06007 0.911499,0.143766 4.62832,1.272884 l 3.978415,1.208589 -0.331101,0.923328 c -0.703444,1.961663 -1.455422,3.131844 -2.390272,3.719597 -0.660394,0.415198 -1.697929,0.542344 -2.89496,0.35477 -0.751782,-0.117805 -2.854375,-0.731724 -6.250206,-1.824947 z m 6.315486,1.643097 c 1.225618,0.164406 1.962365,0.07953 2.660998,-0.306539 0.918669,-0.507669 1.871024,-1.987197 2.424588,-3.766717 l 0.186055,-0.598102 -2.638507,-0.859516 c -5.323067,-1.734032 -6.736937,-1.956907 -8.132512,-1.281952 -0.568019,0.274716 -1.108631,0.801184 -1.505338,1.465951 -0.30581,0.512451 -0.858268,1.766739 -1.050852,2.385832 l -0.156606,0.503437 1.963225,0.633982 c 3.444018,1.112166 5.569725,1.73251 6.24895,1.823622 z m 8.673636,3.020276 c -2.159039,-0.872727 -3.174516,-1.860197 -3.386224,-3.292827 -0.134439,-0.909753 -0.02919,-1.830687 0.399375,-3.494304 l 0.217485,-0.844249 3.457374,1.029024 c 3.545371,1.055214 4.472286,1.378158 5.351203,1.864341 0.582209,0.322065 0.943472,0.608819 1.289672,1.023682 0.911847,1.092707 0.984162,2.522516 0.26986,5.335671 l -0.185234,0.729517 -3.587737,-1.127324 C 47.578075,50.8934 45.856468,50.342844 45.725551,50.289928 Z m 7.455462,1.442784 c 0.221043,-0.895964 0.416966,-2.003524 0.443676,-2.508124 0.01199,-0.226541 -0.02125,-0.700929 -0.07387,-1.054202 -0.174695,-1.172833 -0.752856,-1.862518 -2.204342,-2.629552 -0.51805,-0.273763 -0.895913,-0.400435 -4.384709,-1.46991 -2.099791,-0.643682 -3.835522,-1.161024 -3.85718,-1.149639 -0.07278,0.03824 -0.550615,2.16758 -0.597094,2.660816 -0.195764,2.077487 0.444167,3.177034 2.40306,4.129004 0.847938,0.412075 0.769789,0.385071 4.577204,1.581614 l 3.528252,1.10882 z M 34.019063,39.252882 c -5.001784,-1.883459 -5.959713,-4.771681 -4.111028,-12.395044 0.437675,-1.804826 1.478938,-5.433829 1.553777,-5.415216 0.270271,0.06722 4.887859,1.38393 6.607136,1.88403 1.472518,0.428326 2.419198,0.733548 2.914753,0.939765 1.793068,0.746153 2.748704,1.516989 3.383981,2.72959 1.190191,2.2718 0.909447,5.696488 -1.0293,12.556034 -0.356357,1.260833 -0.656367,2.296497 -0.666701,2.301476 -0.03003,0.01448 -6.787202,-1.947571 -7.356811,-2.136163 -0.283938,-0.094 -0.86705,-0.30302 -1.295807,-0.464477 z m 5.368084,1.46981 c 1.722637,0.497852 3.143809,0.899013 3.15816,0.891471 0.0598,-0.03142 1.303506,-4.593731 1.558731,-5.717961 1.369024,-6.030306 0.975351,-8.850904 -1.474743,-10.56624 C 41.76794,24.726918 41.316417,24.544454 38.67922,23.7337 37.317257,23.314995 35.164805,22.67556 33.89599,22.312746 l -2.306935,-0.659668 -0.591519,1.959687 c -1.836342,6.083728 -2.217844,9.765932 -1.244278,12.009681 0.653102,1.505187 1.949455,2.552608 4.231192,3.418693 1.119329,0.42487 1.963484,0.687607 5.402712,1.681517 z m 6.174484,2.126185 -2.372278,-0.772639 0.472446,-1.460802 c 2.534669,-7.83733 4.656288,-11.3291 7.372363,-12.133462 1.49631,-0.443131 3.092956,-0.237666 6.185011,0.79592 2.702509,0.903368 6.783085,2.307491 6.803834,2.341189 0.03875,0.06293 -1.741776,5.172896 -2.155277,6.185476 -1.566543,3.836153 -2.953484,5.810759 -4.747993,6.759779 -0.947303,0.500976 -1.80978,0.675727 -2.99479,0.606784 -1.601596,-0.09318 -2.304535,-0.283805 -8.563306,-2.322245 z m 7.445341,2.015604 c 1.387459,0.205959 2.502586,0.146488 3.4426,-0.183598 1.31814,-0.462866 2.55938,-1.687233 3.655792,-3.606095 1.015094,-1.776548 1.816282,-3.723191 3.082973,-7.490675 l 0.624629,-1.857818 -1.508449,-0.512921 c -0.82965,-0.282104 -2.2507,-0.7729 -3.157891,-1.090659 -3.141836,-1.100466 -4.716731,-1.536432 -5.944388,-1.645546 -3.218777,-0.28608 -5.228225,1.613448 -7.517969,7.106717 -0.464346,1.113999 -1.103966,2.851079 -1.820071,4.942939 l -0.491975,1.437135 2.216578,0.712336 c 4.111678,1.321364 6.677606,2.078262 7.418172,2.188184 z"
         id="path1"
         sodipodi:nodetypes="ccsssscsssscssscsssscsssssscssssccssssssscssscsssssssscssscssssccsssccccsssssssscsssscscssscsss" />
      <text
         xml:space="preserve"
         style="font-size:6.35px;line-height:1.25;font-family:'Century Gothic';-inkscape-font-specification:'Century Gothic, Normal';stroke-width:0.264583"
         x="25.616524"
         y="59.656055"
         id="text1"><tspan
           sodipodi:role="line"
           id="tspan1"
           style="stroke-width:0.264583"
           x="25.616524"
           y="59.656055">Butterfly zone</tspan></text>
    </g>
  </g>
</svg>
