<?xml version="1.0" encoding="UTF-8" standalone="no"?>
<!-- Created with Inkscape (http://www.inkscape.org/) -->

<svg
   width="350"
   height="280"
   viewBox="0 0 92.604168 74.083333"
   version="1.1"
   id="svg1"
   xmlns="http://www.w3.org/2000/svg"
   xmlns:svg="http://www.w3.org/2000/svg">
  <defs
     id="defs1" />
  <g
     id="layer1">
    <path
       style="baseline-shift:baseline;display:inline;overflow:visible;vector-effect:none;stroke-linecap:round;stroke-linejoin:round;enable-background:accumulate;stop-color:#000000;fill:#5a5a5a;fill-opacity:1"
       d="m 47.201172,21.750418 -10.298828,5.269531 a 0.78257828,0.78257828 0 0 0 -0.427735,0.703125 l 0.101563,16.705079 a 0.78257828,0.78257828 0 0 0 0.777344,0.777344 L 55.25,45.297294 a 0.78257828,0.78257828 0 0 0 0.785156,-0.777344 l 0.09375,-16.837892 A 0.78257828,0.78257828 0 0 0 55.34375,26.896902 l -7.003906,0.02148 v -4.470704 a 0.78257828,0.78257828 0 0 0 -1.138672,-0.697265 z m -0.425781,1.976562 v 3.197266 l -3.484375,0.0098 a 0.78257828,0.78257828 0 0 0 -0.78125,0.783203 v 12.769532 a 0.78257828,0.78257828 0 0 0 0.765625,0.783203 l 4.265625,0.0918 a 0.78257828,0.78257828 0 0 0 0.798828,-0.78125 V 28.48284 l 6.220703,-0.01953 -0.08594,15.265625 -16.33789,-0.08398 -0.09375,-15.451173 z m 0,4.761719 v 11.291017 l -2.701172,-0.05859 v -11.22461 z"
       id="path7" />
    <path
       d="m 31.817021,49.420017 q 0,-0.747889 0.0635,-1.277057 0.07056,-0.536223 0.204611,-0.881945 0.134055,-0.345723 0.331611,-0.508 0.197556,-0.162278 0.465667,-0.162278 0.162278,0 0.254,0.02822 0.09878,0.02822 0.155223,0.08467 v 0.451555 q -0.05645,-0.05644 -0.141112,-0.08467 -0.08467,-0.03528 -0.225778,-0.03528 -0.162277,0 -0.289278,0.134056 -0.119944,0.134055 -0.204611,0.423333 -0.07761,0.282223 -0.119944,0.740834 -0.04233,0.451556 -0.04233,1.086556 0,0.635001 0.04233,1.086557 0.04233,0.451555 0.119944,0.740833 0.08467,0.282223 0.204611,0.416278 0.127001,0.134056 0.289278,0.134056 0.141112,0 0.225778,-0.03528 0.08467,-0.03528 0.141112,-0.08467 v 0.451555 q -0.05645,0.04939 -0.155223,0.07761 -0.09172,0.02822 -0.254,0.02822 -0.268111,0 -0.465667,-0.162278 -0.197556,-0.162278 -0.331611,-0.500945 -0.134056,-0.345722 -0.204611,-0.874889 -0.0635,-0.536223 -0.0635,-1.277057 z m 1.947328,2.744613 z m 1.933224,-2.695225 q 0,0.74789 -0.07056,1.277057 -0.0635,0.522112 -0.1905,0.860779 -0.119944,0.331611 -0.303389,0.486834 -0.176389,0.148166 -0.402167,0.148166 -0.225778,0 -0.409222,-0.148166 -0.176389,-0.155223 -0.303389,-0.486834 -0.119945,-0.338667 -0.190501,-0.860779 -0.0635,-0.529167 -0.0635,-1.277057 0,-1.488723 0.254001,-2.180168 0.254,-0.691445 0.712611,-0.691445 0.451556,0 0.705556,0.691445 0.261056,0.691445 0.261056,2.180168 z m -1.481668,0 q 0,1.107723 0.127,1.721557 0.127,0.613834 0.388056,0.613834 0.261056,0 0.388056,-0.613834 0.127,-0.613834 0.127,-1.721557 0,-0.550334 -0.03528,-0.994833 -0.02822,-0.451556 -0.09172,-0.769056 -0.0635,-0.3175 -0.162278,-0.486833 -0.09878,-0.176389 -0.225778,-0.176389 -0.127,0 -0.225778,0.176389 -0.09878,0.169333 -0.162278,0.486833 -0.0635,0.3175 -0.09878,0.769056 -0.02822,0.444499 -0.02822,0.994833 z m 2.286004,2.695225 z M 36.96052,48.876739 H 36.9323 v 3.287891 h -0.430389 v -5.750281 l 1.340556,3.732391 h 0.02822 v -3.478392 h 0.416278 v 5.750282 z m 2.116674,3.287891 z m 0.07055,-0.486833 q 0.04939,0.04233 0.127,0.08467 0.08467,0.03528 0.211667,0.03528 0.388056,0 0.564445,-0.246945 0.183445,-0.246944 0.183445,-0.762 0,-0.204611 -0.05644,-0.395111 -0.05644,-0.197556 -0.148167,-0.381001 -0.141111,-0.268111 -0.310444,-0.515056 -0.169334,-0.246944 -0.3175,-0.493889 -0.141112,-0.239889 -0.232834,-0.508 -0.09172,-0.275167 -0.09172,-0.599723 0,-0.606778 0.261055,-0.9525 0.261056,-0.352778 0.719668,-0.352778 0.162277,0 0.246944,0.04233 0.09172,0.03528 0.141111,0.07056 v 0.451555 q -0.03528,-0.04939 -0.127,-0.08467 -0.09172,-0.03528 -0.197555,-0.03528 -0.289278,0 -0.444501,0.218722 -0.155222,0.211667 -0.155222,0.691445 0,0.211667 0.0635,0.409223 0.0635,0.197555 0.162278,0.381 0.119944,0.218722 0.268111,0.430389 0.155223,0.211666 0.296334,0.437444 0.162278,0.268111 0.268111,0.550334 0.112889,0.282222 0.112889,0.635 0,0.691445 -0.296334,1.072445 -0.296333,0.373945 -0.839611,0.373945 -0.162278,0 -0.261056,-0.03528 -0.09878,-0.02822 -0.148167,-0.07056 z m 1.933231,0.486833 z m 0.585612,0 V 47.112849 H 41.08098 v -0.4445 h 1.601612 v 0.4445 h -0.5715 v 5.051781 z m 1.643947,0 z m 0.444501,0 h -0.444501 v -5.538615 q 0.472723,0.01411 0.797279,0.183445 0.324555,0.169333 0.522111,0.451555 0.197556,0.275168 0.282222,0.642056 0.09172,0.366889 0.09172,0.776111 0,0.677334 -0.239889,1.12889 -0.239889,0.451556 -0.698501,0.790223 0.183445,0.275167 0.381,0.522111 0.204612,0.246945 0.402167,0.451556 0.204612,0.204611 0.395112,0.359834 0.1905,0.148166 0.352778,0.232833 h -0.740834 q -0.119945,-0.07055 -0.261056,-0.211667 -0.134055,-0.141111 -0.282222,-0.324555 -0.141111,-0.190501 -0.289278,-0.402167 -0.141111,-0.218723 -0.261056,-0.437445 0,0.0071 -0.0071,0.0071 z m 0,-1.778002 q 0.409222,-0.296334 0.606778,-0.677334 0.197555,-0.388056 0.197555,-0.959556 0,-0.282221 -0.04939,-0.557389 -0.04233,-0.275167 -0.141112,-0.493889 -0.09878,-0.225778 -0.254,-0.381001 -0.148167,-0.155222 -0.359833,-0.211666 z m 2.003767,1.778002 z m 0.959557,0.07056 q -0.268112,0 -0.451556,-0.127 -0.183445,-0.127001 -0.296334,-0.36689 -0.112889,-0.246944 -0.162278,-0.592668 -0.04939,-0.352778 -0.04939,-0.790222 v -3.690058 h 0.458612 v 3.711224 q 0,0.712612 0.105833,1.058334 0.112889,0.345723 0.395112,0.345723 0.289278,0 0.395111,-0.345723 0.105833,-0.345722 0.105833,-1.058334 v -3.711224 h 0.458612 v 3.690058 q 0,0.437444 -0.04939,0.790222 -0.04939,0.345723 -0.162278,0.592668 -0.105833,0.239889 -0.289278,0.36689 -0.183445,0.127 -0.458611,0.127 z m 1.742718,-0.07056 z m 0,-2.744613 q 0,-0.747889 0.0635,-1.277057 0.07055,-0.536223 0.204611,-0.881945 0.134056,-0.345723 0.331611,-0.508 0.197556,-0.162278 0.465667,-0.162278 0.162278,0 0.254,0.02822 0.09878,0.02822 0.155223,0.08467 v 0.451555 q -0.05644,-0.05644 -0.141112,-0.08467 -0.08467,-0.03528 -0.225777,-0.03528 -0.162278,0 -0.289278,0.134056 -0.119945,0.134055 -0.204612,0.423333 -0.07761,0.282223 -0.119944,0.740834 -0.04233,0.451556 -0.04233,1.086556 0,0.635001 0.04233,1.086557 0.04233,0.451555 0.119944,0.740833 0.08467,0.282223 0.204612,0.416278 0.127,0.134056 0.289278,0.134056 0.141111,0 0.225777,-0.03528 0.08467,-0.03528 0.141112,-0.08467 v 0.451555 q -0.05644,0.04939 -0.155223,0.07761 -0.09172,0.02822 -0.254,0.02822 -0.268111,0 -0.465667,-0.162278 -0.197555,-0.162278 -0.331611,-0.500945 -0.134056,-0.345722 -0.204611,-0.874889 -0.0635,-0.536223 -0.0635,-1.277057 z m 1.912054,2.744613 z m 0.585612,0 v -5.051781 h -0.585612 v -0.4445 h 1.601612 v 0.4445 h -0.5715 v 5.051781 z m 1.643946,0 z m 0,0 v -5.496282 h 0.451555 v 5.496281 z m 1.255887,0 z m 1.933223,-2.695225 q 0,0.74789 -0.07055,1.277057 -0.0635,0.522112 -0.190501,0.860779 -0.119944,0.331611 -0.303389,0.486834 -0.176389,0.148166 -0.402167,0.148166 -0.225778,0 -0.409222,-0.148166 -0.176389,-0.155223 -0.303389,-0.486834 -0.119945,-0.338667 -0.1905,-0.860779 -0.0635,-0.529167 -0.0635,-1.277057 0,-1.488723 0.254,-2.180168 0.254,-0.691445 0.712611,-0.691445 0.451556,0 0.705556,0.691445 0.261056,0.691445 0.261056,2.180168 z m -1.481667,0 q 0,1.107723 0.127,1.721557 0.127,0.613834 0.388055,0.613834 0.261056,0 0.388056,-0.613834 0.127,-0.613834 0.127,-1.721557 0,-0.550334 -0.03528,-0.994833 -0.02822,-0.451556 -0.09172,-0.769056 -0.0635,-0.3175 -0.162278,-0.486833 -0.09878,-0.176389 -0.225778,-0.176389 -0.127,0 -0.225778,0.176389 -0.09878,0.169333 -0.162277,0.486833 -0.0635,0.3175 -0.09878,0.769056 -0.02822,0.444499 -0.02822,0.994833 z m 2.286003,2.695225 z m 0.458611,-3.287891 h -0.02822 V 52.16463 H 56.59614 v -5.750281 l 1.340556,3.732391 h 0.02822 v -3.478392 h 0.416278 v 5.750282 z m 2.116674,3.287891 z m 0.07056,-0.486833 q 0.04939,0.04233 0.127,0.08467 0.08467,0.03528 0.211667,0.03528 0.388056,0 0.564445,-0.246945 0.183444,-0.246944 0.183444,-0.762 0,-0.204611 -0.05644,-0.395111 -0.05644,-0.197556 -0.148167,-0.381001 -0.141111,-0.268111 -0.310445,-0.515056 -0.169333,-0.246944 -0.3175,-0.493889 -0.141111,-0.239889 -0.232833,-0.508 -0.09172,-0.275167 -0.09172,-0.599723 0,-0.606778 0.261056,-0.9525 0.261056,-0.352778 0.719667,-0.352778 0.162278,0 0.246945,0.04233 0.09172,0.03528 0.141111,0.07056 v 0.451555 q -0.03528,-0.04939 -0.127,-0.08467 -0.09172,-0.03528 -0.197556,-0.03528 -0.289278,0 -0.4445,0.218722 -0.155222,0.211667 -0.155222,0.691445 0,0.211667 0.0635,0.409223 0.0635,0.197555 0.162278,0.381 0.119944,0.218722 0.268111,0.430389 0.155222,0.211666 0.296333,0.437444 0.162278,0.268111 0.268112,0.550334 0.112889,0.282222 0.112889,0.635 0,0.691445 -0.296334,1.072445 -0.296333,0.373945 -0.839612,0.373945 -0.162277,0 -0.261055,-0.03528 -0.09878,-0.02822 -0.148167,-0.07056 z"
       id="text7"
       style="font-size:7.05556px;line-height:1.25;font-family:Breamcatcher;-inkscape-font-specification:'Breamcatcher, Normal';stroke-width:0.264583;fill:#5a5a5a;fill-opacity:1"
       aria-label="Constructions" />
  </g>
</svg>
