<?xml version="1.0" encoding="UTF-8" standalone="no"?>
<!-- Created with Inkscape (http://www.inkscape.org/) -->

<svg
   width="350"
   height="280"
   viewBox="0 0 92.604168 74.083333"
   version="1.1"
   id="svg1"
   inkscape:version="1.4.2 (f4327f4, 2025-05-13)"
   sodipodi:docname="overgreen.svg"
   xmlns:inkscape="http://www.inkscape.org/namespaces/inkscape"
   xmlns:sodipodi="http://sodipodi.sourceforge.net/DTD/sodipodi-0.dtd"
   xmlns="http://www.w3.org/2000/svg"
   xmlns:svg="http://www.w3.org/2000/svg">
  <sodipodi:namedview
     id="namedview1"
     pagecolor="#ffffff"
     bordercolor="#666666"
     borderopacity="1.0"
     inkscape:showpageshadow="2"
     inkscape:pageopacity="0.0"
     inkscape:pagecheckerboard="0"
     inkscape:deskcolor="#d1d1d1"
     inkscape:document-units="mm"
     inkscape:zoom="2.12"
     inkscape:cx="175"
     inkscape:cy="139.85849"
     inkscape:window-width="1920"
     inkscape:window-height="1001"
     inkscape:window-x="-7"
     inkscape:window-y="-7"
     inkscape:window-maximized="1"
     inkscape:current-layer="layer1" />
  <defs
     id="defs1" />
  <g
     inkscape:label="Livello 1"
     inkscape:groupmode="layer"
     id="layer1">
    <g
       id="g41"
       transform="translate(-0.19267973)">
      <g
         id="g25"
         transform="matrix(0.82915335,0,0,0.82915335,3.0507567,0.05160137)"
         style="fill:#44aa00">
        <path
           style="baseline-shift:baseline;display:inline;overflow:visible;opacity:1;vector-effect:none;fill:#44aa00;enable-background:accumulate;stop-color:#000000;stop-opacity:1"
           d="m 50.581061,27.092227 -3.253906,4.894531 -1.154297,6.453125 -6.810547,5.699218 -1.181641,-6.136718 -0.259765,0.04883 1.029592,6.320312 -3.668264,9.712891 -4.181936,-5.792871 0.08819,-6.578223 -0.263672,-0.01172 -0.279297,6.738282 3.9794,6.581048 0.0624,12.777983 2.324882,0.0624 -0.71762,-13.421532 3.371979,-9.849709 6.752297,-5.894432 6.189551,-1.433496 5.471171,1.890267 0.03468,-0.159798 -5.488281,-2.003906 -6.164063,1.351562 1.115235,-6.251953 3.125328,-4.915796 z"
           id="path1"
           sodipodi:nodetypes="cccccccccccccccccccccccccc" />
        <path
           id="path12"
           style="fill:#44aa00;stroke:#010100;stroke-width:0;stroke-linecap:round"
           d="m 43.579774,35.58998 c -2.169738,1.139416 -2.848539,0.206065 -4.363719,1.636394 v 0 c -0.04839,-0.12097 -0.421448,0.726006 -0.400008,1.636395 0.02014,0.855331 0.400008,2.000038 0.400008,2.000038 l 1.781852,-1.927309 -1.309116,1.963673 2.036402,0.03637 1.054565,-0.363644 c 0.998048,-0.344154 1.769731,-1.393965 0.800016,-4.981912 z"
           sodipodi:nodetypes="ccssccccsc" />
        <path
           id="path13"
           style="fill:#44aa00;stroke:#010100;stroke-width:0;stroke-linecap:round"
           d="m 33.270271,33.218715 c 2.169738,1.139416 2.848539,0.206065 4.363719,1.636394 v 0 c 0.04839,-0.12097 0.421448,0.726006 0.400008,1.636395 -0.02014,0.855331 -0.400008,2.000038 -0.400008,2.000038 l -1.781852,-1.927309 1.309116,1.963673 -2.036402,0.03637 -1.054565,-0.363644 C 33.072239,37.856478 32.300556,36.806667 33.270271,33.21872 Z"
           sodipodi:nodetypes="ccssccccsc" />
        <path
           id="path14"
           style="fill:#44aa00;stroke:#010100;stroke-width:0;stroke-linecap:round"
           d="m 24.072692,44.940624 c 2.43735,0.255648 2.722591,-0.862633 4.659495,-0.09451 v 0 c 1.92e-4,-0.130289 0.660183,0.518519 0.977144,1.372219 0.297796,0.802069 0.368479,2.006086 0.368479,2.006086 l -2.368549,-1.131146 1.942826,1.33986 -1.878392,0.787336 -1.114271,0.0524 c -1.054553,0.04959 -2.15993,-0.640146 -2.58673,-4.332239 z"
           sodipodi:nodetypes="ccssccccsc" />
        <path
           id="path15"
           style="fill:#44aa00;stroke:#010100;stroke-width:0;stroke-linecap:round"
           d="m 25.782063,35.58998 c 2.169738,1.139416 2.848539,0.206065 4.363719,1.636394 v 0 c 0.04839,-0.12097 0.421448,0.726006 0.400008,1.636395 -0.02014,0.855331 -0.400008,2.000038 -0.400008,2.000038 l -1.781852,-1.927309 1.309116,1.963673 -2.036402,0.03637 -1.054565,-0.363644 c -0.998048,-0.344154 -1.769731,-1.393965 -0.800016,-4.981912 z"
           sodipodi:nodetypes="ccssccccsc" />
        <path
           id="path16"
           style="fill:#44aa00;stroke:#010100;stroke-width:0;stroke-linecap:round"
           d="m 54.215004,42.446734 c -1.56161,-1.888758 -0.78796,-2.745133 -2.499528,-3.93347 v 0 c 0.108419,-0.07225 -0.797207,-0.262992 -1.68369,-0.05463 -0.832871,0.19576 -1.874881,0.803106 -1.874881,0.803106 l 2.252796,1.347007 -2.191079,-0.876908 0.383556,2.000285 0.572916,0.957137 c 0.54221,0.905842 1.728377,1.444922 5.039905,-0.242527 z"
           sodipodi:nodetypes="ccssccccsc" />
        <path
           id="path17"
           style="fill:#44aa00;stroke:#010100;stroke-width:0;stroke-linecap:round"
           d="m 37.3476,39.25438 c -2.394355,0.522583 -2.801047,-0.557471 -4.641549,0.41934 v 0 c -0.01454,-0.129475 -0.599047,0.588087 -0.820039,1.471507 -0.207629,0.829992 -0.145251,2.034468 -0.145251,2.034468 l 2.229531,-1.385174 -1.783408,1.545721 1.953691,0.575628 1.113262,-0.07066 c 1.053598,-0.06687 2.076269,-0.874181 2.093762,-4.59082 z"
           sodipodi:nodetypes="ccssccccsc" />
        <path
           id="path18"
           style="fill:#44aa00;stroke:#010100;stroke-width:0;stroke-linecap:round"
           d="m 37.3476,44.121715 c -2.394355,0.522583 -2.801047,-0.557471 -4.641549,0.41934 v 0 c -0.01454,-0.129475 -0.599047,0.588087 -0.820039,1.471507 -0.207629,0.829992 -0.145251,2.034468 -0.145251,2.034468 l 2.229531,-1.385174 -1.783408,1.545721 1.953691,0.575628 1.113262,-0.07066 c 1.053598,-0.06687 2.076269,-0.874181 2.093762,-4.59082 z"
           sodipodi:nodetypes="ccssccccsc" />
        <path
           id="path19"
           style="fill:#44aa00;stroke:#010100;stroke-width:0;stroke-linecap:round"
           d="m 54.022956,31.633881 c -2.444675,-0.172038 -2.531131,-1.322882 -4.572089,-0.903236 v 0 c 0.02247,-0.128338 -0.740283,0.395832 -1.200853,1.181417 -0.432718,0.738073 -0.711672,1.91146 -0.711672,1.91146 l 2.529148,-0.702087 -2.146199,0.981644 1.712882,1.101948 1.088187,0.245343 c 1.029868,0.232197 2.238335,-0.254839 3.300593,-3.816485 z"
           sodipodi:nodetypes="ccssccccsc" />
        <path
           id="path20"
           style="fill:#44aa00;stroke:#010100;stroke-width:0;stroke-linecap:round"
           d="m 43.254548,25.855311 c 2.169738,1.139416 2.848539,0.206065 4.363719,1.636394 v 0 c 0.04839,-0.12097 0.421448,0.726006 0.400008,1.636395 -0.02014,0.855331 -0.400008,2.000038 -0.400008,2.000038 l -1.781852,-1.927309 1.309116,1.963673 -2.036402,0.03637 -1.054565,-0.363644 c -0.998048,-0.344154 -1.769731,-1.393965 -0.800016,-4.981912 z"
           sodipodi:nodetypes="ccssccccsc" />
        <path
           id="path21"
           style="fill:#44aa00;stroke:#010100;stroke-width:0;stroke-linecap:round"
           d="m 46.000224,21.362386 c 2.169738,1.139416 2.848539,0.206065 4.363719,1.636394 v 0 c 0.04839,-0.12097 0.421448,0.726006 0.400008,1.636395 -0.02014,0.855331 -0.400008,2.000038 -0.400008,2.000038 l -1.781852,-1.927309 1.309116,1.963673 -2.036402,0.03637 -1.054565,-0.363644 c -0.998048,-0.344154 -1.769731,-1.393965 -0.800016,-4.981912 z"
           sodipodi:nodetypes="ccssccccsc" />
        <path
           id="path22"
           style="fill:#44aa00;stroke:#010100;stroke-width:0;stroke-linecap:round"
           d="m 40.281113,32.030367 c 2.417114,0.404464 2.770318,-0.694245 4.656535,0.191078 v 0 c 0.0082,-0.130033 0.627182,0.557983 0.891256,1.429495 0.248107,0.818804 0.244907,2.02489 0.244907,2.02489 l -2.294815,-1.274104 1.857107,1.456349 -1.923092,0.6708 -1.115388,-0.01595 c -1.055611,-0.0151 -2.116663,-0.771248 -2.316508,-4.482551 z"
           sodipodi:nodetypes="ccssccccsc" />
        <path
           id="path23"
           style="fill:#44aa00;stroke:#010100;stroke-width:0;stroke-linecap:round"
           d="M 57.625897,24.474487 C 55.17904,24.33693 55.076369,23.18742 53.04153,23.635796 v 0 c 0.02065,-0.128642 -0.73463,0.406229 -1.184079,1.198229 -0.422271,0.744099 -0.684655,1.921303 -0.684655,1.921303 l 2.518999,-0.737672 -2.132147,1.011802 1.728247,1.077691 1.091538,0.229979 c 1.033038,0.217654 2.23452,-0.28637 3.246462,-3.862636 z"
           sodipodi:nodetypes="ccssccccsc" />
        <path
           id="path24"
           style="fill:#44aa00;stroke:#010100;stroke-width:0;stroke-linecap:round"
           d="m 62.058686,27.148445 c -2.394355,0.522583 -2.801047,-0.557471 -4.641549,0.41934 v 0 c -0.01454,-0.129475 -0.599047,0.588087 -0.820039,1.471507 -0.207629,0.829992 -0.145251,2.034468 -0.145251,2.034468 l 2.229531,-1.385174 -1.783408,1.545721 1.953691,0.575628 1.113262,-0.07066 c 1.053598,-0.06687 2.076269,-0.874181 2.093762,-4.59082 z"
           sodipodi:nodetypes="ccssccccsc" />
        <path
           id="path25"
           style="fill:#44aa00;stroke:#010100;stroke-width:0;stroke-linecap:round"
           d="m 60.561044,33.388618 c -2.394355,0.522583 -2.801047,-0.557471 -4.641549,0.41934 v 0 c -0.01454,-0.129475 -0.599047,0.588087 -0.820039,1.471507 -0.207629,0.829992 -0.145251,2.034468 -0.145251,2.034468 l 2.229531,-1.385174 -1.783408,1.545721 1.953691,0.575628 1.113262,-0.07066 c 1.053598,-0.06687 2.076269,-0.874181 2.093762,-4.59082 z"
           sodipodi:nodetypes="ccssccccsc" />
      </g>
      <text
         xml:space="preserve"
         style="font-style:normal;font-variant:normal;font-weight:normal;font-stretch:normal;font-size:7.05556px;line-height:1.25;font-family:'Berlin Sans FB';-inkscape-font-specification:'Berlin Sans FB, Normal';font-variant-ligatures:normal;font-variant-caps:normal;font-variant-numeric:normal;font-variant-east-asian:normal;fill:#445500;stroke-width:0.264583"
         x="39.083179"
         y="46.177284"
         id="text40"><tspan
           sodipodi:role="line"
           id="tspan40"
           style="font-style:normal;font-variant:normal;font-weight:normal;font-stretch:normal;font-size:7.05556px;font-family:'Berlin Sans FB';-inkscape-font-specification:'Berlin Sans FB, Normal';font-variant-ligatures:normal;font-variant-caps:normal;font-variant-numeric:normal;font-variant-east-asian:normal;fill:#445500;stroke-width:0.264583"
           x="39.083179"
           y="46.177284">over green</tspan></text>
    </g>
  </g>
</svg>
